<?xml version="1.0" encoding="UTF-8"?>
<svg width="1024px" height="152px" viewBox="0 0 1024 152" version="1.1" xmlns="http://www.w3.org/2000/svg" xmlns:xlink="http://www.w3.org/1999/xlink">
    <title>1024-sign-header</title>
    <g id="Page-1" stroke="none" stroke-width="1" fill="none" fill-rule="evenodd">
        <g id="1024-sign-header">
            <g id="Icon/Product/Sign" transform="translate(456.400000, 17.877971)">
                <path d="M98.6906288,46.7927544 C98.6906288,72.0795892 78.1534772,92.5797303 52.82099,92.5797303 C27.4901423,92.5797303 6.95463007,72.0795892 6.95463007,46.7927544 C6.95463007,21.5059195 27.4901423,1.00741493 52.82099,1.00741493 C78.1534772,1.00741493 98.6906288,21.5059195 98.6906288,46.7927544 Z" id="Stroke-465" stroke="#939598" stroke-width="1.63943096" stroke-dasharray="3.273943328857422,5.729811096191407"></path>
                <polyline id="Stroke-467" stroke="#000000" stroke-width="1.63943096" stroke-linecap="round" stroke-linejoin="round" points="31.7654503 34.5568196 31.7654503 71.2138931 73.3332223 71.2138931 73.3332223 31.8419051 63.011365 21.5402855 31.7654503 21.5402855 31.7654503 29.6703008"></polyline>
                <polygon id="Stroke-468" stroke="#000000" stroke-width="1.63943096" stroke-linecap="round" stroke-linejoin="round" points="63.011365 31.842396 63.011365 21.53914 73.3332223 31.842396"></polygon>
                <polygon id="Stroke-469" stroke="#000000" stroke-width="1.63943096" stroke-linecap="round" stroke-linejoin="round" points="52.5488445 47.0108967 48.3994447 51.1528187 29.3197472 32.1107782 33.4724258 27.9672197"></polygon>
                <polygon id="Stroke-470" stroke="#000000" stroke-width="1.63943096" stroke-linecap="round" stroke-linejoin="round" points="52.5496642 47.0100784 54.7284679 53.3317871 48.3969856 51.1552734"></polygon>
                <line x1="37.8620022" y1="56.3815247" x2="41.5736739" y2="60.0865075" id="Stroke-471" stroke="#000000" stroke-width="1.63943096" stroke-linecap="round" stroke-linejoin="round"></line>
                <line x1="41.5740018" y1="56.3815247" x2="37.8623301" y2="60.0865075" id="Stroke-472" stroke="#000000" stroke-width="1.63943096" stroke-linecap="round" stroke-linejoin="round"></line>
                <line x1="44.952869" y1="59.5985102" x2="68.1721297" y2="59.5985102" id="Stroke-473" stroke="#000000" stroke-width="1.63943096" stroke-linecap="round" stroke-linejoin="round"></line>
                <polygon id="Fill-474" fill="#60C095" points="0.395430747 56.0735399 13.8010577 56.0735399 13.8010577 42.6920716 0.395430747 42.6920716"></polygon>
                <polygon id="Fill-475" fill="#60C095" points="66.2513724 10.3749337 76.5568354 10.3749337 76.5568354 0.0880424355 66.2513724 0.0880424355"></polygon>
                <polygon id="Fill-476" fill="#60C095" points="80.6537733 83.9067321 88.0164578 83.9067321 88.0164578 76.5573162 80.6537733 76.5573162"></polygon>
                <polyline id="Stroke-477" stroke="#000000" stroke-width="1.63943096" stroke-linecap="round" stroke-linejoin="round" points="63.1771114 21.3843293 61.8147443 17.6220699 50.8617061 21.3843293"></polyline>
                <polyline id="Stroke-478" stroke="#000000" stroke-width="1.63943096" stroke-linecap="round" stroke-linejoin="round" points="73.4996245 66.1427798 78.0047808 64.594673 73.4996245 51.5241352"></polyline>
                <polyline id="Stroke-479" stroke="#000000" stroke-width="1.63943096" stroke-linecap="round" stroke-linejoin="round" points="36.2730657 71.0594097 38.6977841 78.0946222 59.182474 71.0594097"></polyline>
                <polyline id="Stroke-480" stroke="#000000" stroke-width="1.63943096" stroke-linecap="round" stroke-linejoin="round" points="31.9310328 27.8845776 22.5075837 31.1215281 31.9310328 58.462141"></polyline>
            </g>
            <path d="M463.989615,134.65958 C465.013615,134.65958 465.936282,134.478247 466.757615,134.11558 C467.578948,133.752914 468.261615,133.230247 468.805615,132.54758 L468.805615,132.54758 L466.789615,130.72358 C466.064282,131.598247 465.184282,132.03558 464.149615,132.03558 C463.541615,132.03558 463.000282,131.902247 462.525615,131.63558 C462.050948,131.368914 461.682948,130.992914 461.421615,130.50758 C461.160282,130.022247 461.029615,129.464914 461.029615,128.83558 C461.029615,128.206247 461.160282,127.648914 461.421615,127.16358 C461.682948,126.678247 462.050948,126.302247 462.525615,126.03558 C463.000282,125.768914 463.541615,125.63558 464.149615,125.63558 C465.184282,125.63558 466.064282,126.072914 466.789615,126.94758 L466.789615,126.94758 L468.805615,125.12358 C468.261615,124.440914 467.578948,123.918247 466.757615,123.55558 C465.936282,123.192914 465.013615,123.01158 463.989615,123.01158 C462.816282,123.01158 461.762948,123.25958 460.829615,123.75558 C459.896282,124.25158 459.162948,124.942247 458.629615,125.82758 C458.096282,126.712914 457.829615,127.71558 457.829615,128.83558 C457.829615,129.95558 458.096282,130.958247 458.629615,131.84358 C459.162948,132.728914 459.896282,133.41958 460.829615,133.91558 C461.762948,134.41158 462.816282,134.65958 463.989615,134.65958 Z M475.621615,134.65958 C476.805615,134.65958 477.869615,134.408914 478.813615,133.90758 C479.757615,133.406247 480.498948,132.712914 481.037615,131.82758 C481.576282,130.942247 481.845615,129.944914 481.845615,128.83558 C481.845615,127.726247 481.576282,126.728914 481.037615,125.84358 C480.498948,124.958247 479.757615,124.264914 478.813615,123.76358 C477.869615,123.262247 476.805615,123.01158 475.621615,123.01158 C474.437615,123.01158 473.373615,123.262247 472.429615,123.76358 C471.485615,124.264914 470.744282,124.958247 470.205615,125.84358 C469.666948,126.728914 469.397615,127.726247 469.397615,128.83558 C469.397615,129.944914 469.666948,130.942247 470.205615,131.82758 C470.744282,132.712914 471.485615,133.406247 472.429615,133.90758 C473.373615,134.408914 474.437615,134.65958 475.621615,134.65958 Z M475.621615,132.03558 C475.056282,132.03558 474.544282,131.902247 474.085615,131.63558 C473.626948,131.368914 473.264282,130.992914 472.997615,130.50758 C472.730948,130.022247 472.597615,129.464914 472.597615,128.83558 C472.597615,128.206247 472.730948,127.648914 472.997615,127.16358 C473.264282,126.678247 473.626948,126.302247 474.085615,126.03558 C474.544282,125.768914 475.056282,125.63558 475.621615,125.63558 C476.186948,125.63558 476.698948,125.768914 477.157615,126.03558 C477.616282,126.302247 477.978948,126.678247 478.245615,127.16358 C478.512282,127.648914 478.645615,128.206247 478.645615,128.83558 C478.645615,129.464914 478.512282,130.022247 478.245615,130.50758 C477.978948,130.992914 477.616282,131.368914 477.157615,131.63558 C476.698948,131.902247 476.186948,132.03558 475.621615,132.03558 Z M486.613615,134.43558 L486.613615,128.46758 L491.557615,134.43558 L494.165615,134.43558 L494.165615,123.23558 L491.061615,123.23558 L491.061615,129.20358 L486.117615,123.23558 L483.509615,123.23558 L483.509615,134.43558 L486.613615,134.43558 Z M502.005615,134.65958 C502.837615,134.65958 503.669615,134.536914 504.501615,134.29158 C505.333615,134.046247 506.069615,133.694247 506.709615,133.23558 L506.709615,133.23558 L506.709615,128.59558 L503.909615,128.59558 L503.909615,131.66758 C503.376282,131.912914 502.805615,132.03558 502.197615,132.03558 C501.578948,132.03558 501.029615,131.89958 500.549615,131.62758 C500.069615,131.35558 499.696282,130.976914 499.429615,130.49158 C499.162948,130.006247 499.029615,129.454247 499.029615,128.83558 C499.029615,127.864914 499.322948,127.088914 499.909615,126.50758 C500.496282,125.926247 501.269615,125.63558 502.229615,125.63558 C503.285615,125.63558 504.192282,126.05158 504.949615,126.88358 L504.949615,126.88358 L506.965615,125.05958 C506.410948,124.398247 505.717615,123.89158 504.885615,123.53958 C504.053615,123.18758 503.114948,123.01158 502.069615,123.01158 C500.874948,123.01158 499.802948,123.25958 498.853615,123.75558 C497.904282,124.25158 497.162948,124.942247 496.629615,125.82758 C496.096282,126.712914 495.829615,127.71558 495.829615,128.83558 C495.829615,129.95558 496.096282,130.958247 496.629615,131.84358 C497.162948,132.728914 497.898948,133.41958 498.837615,133.91558 C499.776282,134.41158 500.832282,134.65958 502.005615,134.65958 Z M510.613615,134.43558 L511.493615,132.25958 L516.229615,132.25958 L517.109615,134.43558 L520.405615,134.43558 L515.445615,123.23558 L512.325615,123.23558 L507.381615,134.43558 L510.613615,134.43558 Z M515.301615,129.92358 L512.421615,129.92358 L513.861615,126.33958 L515.301615,129.92358 Z M529.893615,134.65958 C530.960282,134.65958 531.866948,134.496914 532.613615,134.17158 C533.360282,133.846247 533.920282,133.41158 534.293615,132.86758 C534.666948,132.32358 534.853615,131.71558 534.853615,131.04358 C534.853615,130.264914 534.648282,129.648914 534.237615,129.19558 C533.826948,128.742247 533.341615,128.41158 532.781615,128.20358 C532.221615,127.99558 531.514948,127.800914 530.661615,127.61958 C529.904282,127.45958 529.354948,127.304914 529.013615,127.15558 C528.672282,127.006247 528.501615,126.782247 528.501615,126.48358 C528.501615,126.184914 528.645615,125.942247 528.933615,125.75558 C529.221615,125.568914 529.680282,125.47558 530.309615,125.47558 C531.312282,125.47558 532.346948,125.76358 533.413615,126.33958 L533.413615,126.33958 L534.389615,123.98758 C533.845615,123.66758 533.216282,123.424914 532.501615,123.25958 C531.786948,123.094247 531.061615,123.01158 530.325615,123.01158 C529.248282,123.01158 528.338948,123.17158 527.597615,123.49158 C526.856282,123.81158 526.298948,124.246247 525.925615,124.79558 C525.552282,125.344914 525.365615,125.960914 525.365615,126.64358 C525.365615,127.422247 525.568282,128.040914 525.973615,128.49958 C526.378948,128.958247 526.864282,129.29158 527.429615,129.49958 C527.994948,129.70758 528.698948,129.902247 529.541615,130.08358 C530.309615,130.254247 530.866948,130.416914 531.213615,130.57158 C531.560282,130.726247 531.733615,130.96358 531.733615,131.28358 C531.733615,131.89158 531.125615,132.19558 529.909615,132.19558 C529.269615,132.19558 528.618948,132.094247 527.957615,131.89158 C527.296282,131.688914 526.714948,131.422247 526.213615,131.09158 L526.213615,131.09158 L525.173615,133.42758 C525.706948,133.800914 526.400282,134.09958 527.253615,134.32358 C528.106948,134.54758 528.986948,134.65958 529.893615,134.65958 Z M539.477615,134.43558 L539.477615,123.23558 L536.309615,123.23558 L536.309615,134.43558 L539.477615,134.43558 Z M547.333615,134.65958 C548.165615,134.65958 548.997615,134.536914 549.829615,134.29158 C550.661615,134.046247 551.397615,133.694247 552.037615,133.23558 L552.037615,133.23558 L552.037615,128.59558 L549.237615,128.59558 L549.237615,131.66758 C548.704282,131.912914 548.133615,132.03558 547.525615,132.03558 C546.906948,132.03558 546.357615,131.89958 545.877615,131.62758 C545.397615,131.35558 545.024282,130.976914 544.757615,130.49158 C544.490948,130.006247 544.357615,129.454247 544.357615,128.83558 C544.357615,127.864914 544.650948,127.088914 545.237615,126.50758 C545.824282,125.926247 546.597615,125.63558 547.557615,125.63558 C548.613615,125.63558 549.520282,126.05158 550.277615,126.88358 L550.277615,126.88358 L552.293615,125.05958 C551.738948,124.398247 551.045615,123.89158 550.213615,123.53958 C549.381615,123.18758 548.442948,123.01158 547.397615,123.01158 C546.202948,123.01158 545.130948,123.25958 544.181615,123.75558 C543.232282,124.25158 542.490948,124.942247 541.957615,125.82758 C541.424282,126.712914 541.157615,127.71558 541.157615,128.83558 C541.157615,129.95558 541.424282,130.958247 541.957615,131.84358 C542.490948,132.728914 543.226948,133.41958 544.165615,133.91558 C545.104282,134.41158 546.160282,134.65958 547.333615,134.65958 Z M557.157615,134.43558 L557.157615,128.46758 L562.101615,134.43558 L564.709615,134.43558 L564.709615,123.23558 L561.605615,123.23558 L561.605615,129.20358 L556.661615,123.23558 L554.053615,123.23558 L554.053615,134.43558 L557.157615,134.43558 Z" id="CONGASIGN" fill="#000000" fill-rule="nonzero"></path>
            <rect id="Rectangle" fill="#60C095" x="793.300829" y="10.2271022" width="20.8" height="20.8"></rect>
            <rect id="Rectangle" fill="#60C095" x="207.6" y="124.277971" width="23.9573778" height="23.9573778"></rect>
            <polygon id="Fill-387" points="209.995738 151.828955 245.931804 151.828955 245.931804 124.277971 209.995738 124.277971"></polygon>
            <path d="M228.513593,134.430853 C227.961421,134.430853 227.312499,134.936414 227.102411,135.570086 C226.831509,136.387662 227.06924,137.46766 227.723691,138.388552 C227.820442,138.524241 227.924103,138.655796 228.035367,138.783909 C228.817667,138.175721 229.331138,137.52414 229.56956,136.835365 C229.758916,136.287101 229.687735,135.567331 229.391953,135.043174 C229.262722,134.813123 229.035357,134.523838 228.688436,134.448761 C228.631767,134.436363 228.573026,134.430853 228.513593,134.430853 M218.534424,144.980125 C217.360973,144.980125 216.186831,144.880253 215.027202,144.677753 L215.598723,141.421227 C218.783903,141.976379 222.100387,141.611328 225.087227,140.397707 C225.063731,140.365335 225.040234,140.332274 225.016737,140.299213 C223.745844,138.511154 223.348474,136.3546 223.953168,134.531414 C224.719574,132.221953 227.159771,130.734888 229.391262,131.217719 C230.60134,131.479454 231.628282,132.261902 232.282733,133.421798 C233.050521,134.78075 233.208087,136.460672 232.704982,137.913986 C232.360825,138.909266 231.763043,139.823958 230.918545,140.651865 C231.604786,140.894314 232.354606,141.061686 233.149346,141.145028 C235.482426,141.391609 237.937826,140.950793 240.313062,140.525131 L240.900479,143.778902 C238.296496,144.245202 235.603364,144.728033 232.801042,144.433238 C230.926838,144.236248 229.207435,143.672142 227.77483,142.810485 C224.912384,144.24107 221.727205,144.980125 218.534424,144.980125" id="Fill-388" fill="#231F20"></path>
            <rect id="Rectangle-Copy-2" fill="#CEE8DB" x="301.090127" y="40.9017627" width="15.7220292" height="15.7220292"></rect>
            <rect id="Rectangle-Copy-5" fill="#60C095" x="114" y="0" width="9.6" height="9.6"></rect>
            <rect id="Rectangle-Copy-3" fill="#60C095" x="731.992698" y="131.189437" width="15.7220292" height="15.7220292"></rect>
            <rect id="Rectangle-Copy-4" fill="#CEE8DB" x="851.361148" y="99.7453787" width="15.7220292" height="15.7220292"></rect>
            <rect id="Rectangle-Copy-6" fill="#CEE8DB" x="902" y="144" width="8" height="8"></rect>
            <polygon id="Fill-366" points="777.586583 40.0016678 815.986583 40.0016678 815.986583 0.696594858 777.586583 0.696594858"></polygon>
            <polygon id="Fill-367" fill="#231F20" points="786.503886 27.8965949 804.903886 27.8965949 804.903886 24.6965949 786.503886 24.6965949"></polygon>
            <polygon id="Fill-368" fill="#231F20" points="803.131634 12.6965949 796.103886 19.1393188 796.103886 21.4965949 798.676138 21.4965949 805.703886 15.0544926"></polygon>
            <rect id="Rectangle" x="0" y="60" width="4" height="32"></rect>
            <rect id="Rectangle-Copy" x="1020" y="60" width="4" height="32"></rect>
        </g>
    </g>
</svg>