<?xml version="1.0" encoding="UTF-8"?>
<svg width="1440px" height="191px" viewBox="0 0 1440 191" version="1.1" xmlns="http://www.w3.org/2000/svg" xmlns:xlink="http://www.w3.org/1999/xlink">
    <title>1440-sign-header</title>
    <g id="Page-1" stroke="none" stroke-width="1" fill="none" fill-rule="evenodd">
        <g id="1440-sign-header" transform="translate(0.000000, 0.652536)">
            <g id="Icon/Product/Sign" transform="translate(651.000000, 28.347464)">
                <path d="M123.363286,58.4909429 C123.363286,90.0994865 97.6918465,115.724663 66.0262375,115.724663 C34.3626778,115.724663 8.69328759,90.0994865 8.69328759,58.4909429 C8.69328759,26.8823994 34.3626778,1.25926866 66.0262375,1.25926866 C97.6918465,1.25926866 123.363286,26.8823994 123.363286,58.4909429 Z" id="Stroke-465" stroke="#939598" stroke-width="2.0492887" stroke-dasharray="4.092429355801088,7.162264020031036"></path>
                <polyline id="Stroke-467" stroke="#000000" stroke-width="2.0492887" stroke-linecap="round" stroke-linejoin="round" points="39.7068129 43.1960245 39.7068129 89.0173664 91.6665278 89.0173664 91.6665278 39.8023814 78.7642062 26.9253569 39.7068129 26.9253569 39.7068129 37.087876"></polyline>
                <polygon id="Stroke-468" stroke="#000000" stroke-width="2.0492887" stroke-linecap="round" stroke-linejoin="round" points="78.7642062 39.802995 78.7642062 26.923925 91.6665278 39.802995"></polygon>
                <polygon id="Stroke-469" stroke="#000000" stroke-width="2.0492887" stroke-linecap="round" stroke-linejoin="round" points="65.6860556 58.7636208 60.4993059 63.9410234 36.649684 40.1384727 41.8405323 34.9590246"></polygon>
                <polygon id="Stroke-470" stroke="#000000" stroke-width="2.0492887" stroke-linecap="round" stroke-linejoin="round" points="65.6870802 58.762598 68.4105849 66.6647339 60.496232 63.9440918"></polygon>
                <line x1="47.3275028" y1="70.4769059" x2="51.9670924" y2="75.1081344" id="Stroke-471" stroke="#000000" stroke-width="2.0492887" stroke-linecap="round" stroke-linejoin="round"></line>
                <line x1="51.9675022" y1="70.4769059" x2="47.3279126" y2="75.1081344" id="Stroke-472" stroke="#000000" stroke-width="2.0492887" stroke-linecap="round" stroke-linejoin="round"></line>
                <line x1="56.1910863" y1="74.4981378" x2="85.2151621" y2="74.4981378" id="Stroke-473" stroke="#000000" stroke-width="2.0492887" stroke-linecap="round" stroke-linejoin="round"></line>
                <polygon id="Fill-474" fill="#60C095" points="0.494288434 70.0919248 17.2513221 70.0919248 17.2513221 53.3650894 0.494288434 53.3650894"></polygon>
                <polygon id="Fill-475" fill="#60C095" points="82.8142155 12.9686671 95.6960442 12.9686671 95.6960442 0.110053044 82.8142155 0.110053044"></polygon>
                <polygon id="Fill-476" fill="#60C095" points="100.817217 104.883415 110.020572 104.883415 110.020572 95.6966452 100.817217 95.6966452"></polygon>
                <polyline id="Stroke-477" stroke="#000000" stroke-width="2.0492887" stroke-linecap="round" stroke-linejoin="round" points="78.9713893 26.7304117 77.2684304 22.0275873 63.5771326 26.7304117"></polyline>
                <polyline id="Stroke-478" stroke="#000000" stroke-width="2.0492887" stroke-linecap="round" stroke-linejoin="round" points="91.8745306 82.6784747 97.505976 80.7433412 91.8745306 64.405169"></polyline>
                <polyline id="Stroke-479" stroke="#000000" stroke-width="2.0492887" stroke-linecap="round" stroke-linejoin="round" points="45.3413322 88.8242622 48.3722302 97.6182777 73.9780924 88.8242622"></polyline>
                <polyline id="Stroke-480" stroke="#000000" stroke-width="2.0492887" stroke-linecap="round" stroke-linejoin="round" points="39.9137911 34.855722 28.1344796 38.9019102 39.9137911 73.0776762"></polyline>
            </g>
            <path d="M660.487019,174.324475 C661.767019,174.324475 662.920352,174.097809 663.947019,173.644475 C664.973685,173.191142 665.827019,172.537809 666.507019,171.684475 L666.507019,171.684475 L663.987019,169.404475 C663.080352,170.497809 661.980352,171.044475 660.687019,171.044475 C659.927019,171.044475 659.250352,170.877809 658.657019,170.544475 C658.063685,170.211142 657.603685,169.741142 657.277019,169.134475 C656.950352,168.527809 656.787019,167.831142 656.787019,167.044475 C656.787019,166.257809 656.950352,165.561142 657.277019,164.954475 C657.603685,164.347809 658.063685,163.877809 658.657019,163.544475 C659.250352,163.211142 659.927019,163.044475 660.687019,163.044475 C661.980352,163.044475 663.080352,163.591142 663.987019,164.684475 L663.987019,164.684475 L666.507019,162.404475 C665.827019,161.551142 664.973685,160.897809 663.947019,160.444475 C662.920352,159.991142 661.767019,159.764475 660.487019,159.764475 C659.020352,159.764475 657.703685,160.074475 656.537019,160.694475 C655.370352,161.314475 654.453685,162.177809 653.787019,163.284475 C653.120352,164.391142 652.787019,165.644475 652.787019,167.044475 C652.787019,168.444475 653.120352,169.697809 653.787019,170.804475 C654.453685,171.911142 655.370352,172.774475 656.537019,173.394475 C657.703685,174.014475 659.020352,174.324475 660.487019,174.324475 Z M675.027019,174.324475 C676.507019,174.324475 677.837019,174.011142 679.017019,173.384475 C680.197019,172.757809 681.123685,171.891142 681.797019,170.784475 C682.470352,169.677809 682.807019,168.431142 682.807019,167.044475 C682.807019,165.657809 682.470352,164.411142 681.797019,163.304475 C681.123685,162.197809 680.197019,161.331142 679.017019,160.704475 C677.837019,160.077809 676.507019,159.764475 675.027019,159.764475 C673.547019,159.764475 672.217019,160.077809 671.037019,160.704475 C669.857019,161.331142 668.930352,162.197809 668.257019,163.304475 C667.583685,164.411142 667.247019,165.657809 667.247019,167.044475 C667.247019,168.431142 667.583685,169.677809 668.257019,170.784475 C668.930352,171.891142 669.857019,172.757809 671.037019,173.384475 C672.217019,174.011142 673.547019,174.324475 675.027019,174.324475 Z M675.027019,171.044475 C674.320352,171.044475 673.680352,170.877809 673.107019,170.544475 C672.533685,170.211142 672.080352,169.741142 671.747019,169.134475 C671.413685,168.527809 671.247019,167.831142 671.247019,167.044475 C671.247019,166.257809 671.413685,165.561142 671.747019,164.954475 C672.080352,164.347809 672.533685,163.877809 673.107019,163.544475 C673.680352,163.211142 674.320352,163.044475 675.027019,163.044475 C675.733685,163.044475 676.373685,163.211142 676.947019,163.544475 C677.520352,163.877809 677.973685,164.347809 678.307019,164.954475 C678.640352,165.561142 678.807019,166.257809 678.807019,167.044475 C678.807019,167.831142 678.640352,168.527809 678.307019,169.134475 C677.973685,169.741142 677.520352,170.211142 676.947019,170.544475 C676.373685,170.877809 675.733685,171.044475 675.027019,171.044475 Z M688.767019,174.044475 L688.767019,166.584475 L694.947019,174.044475 L698.207019,174.044475 L698.207019,160.044475 L694.327019,160.044475 L694.327019,167.504475 L688.147019,160.044475 L684.887019,160.044475 L684.887019,174.044475 L688.767019,174.044475 Z M708.007019,174.324475 C709.047019,174.324475 710.087019,174.171142 711.127019,173.864475 C712.167019,173.557809 713.087019,173.117809 713.887019,172.544475 L713.887019,172.544475 L713.887019,166.744475 L710.387019,166.744475 L710.387019,170.584475 C709.720352,170.891142 709.007019,171.044475 708.247019,171.044475 C707.473685,171.044475 706.787019,170.874475 706.187019,170.534475 C705.587019,170.194475 705.120352,169.721142 704.787019,169.114475 C704.453685,168.507809 704.287019,167.817809 704.287019,167.044475 C704.287019,165.831142 704.653685,164.861142 705.387019,164.134475 C706.120352,163.407809 707.087019,163.044475 708.287019,163.044475 C709.607019,163.044475 710.740352,163.564475 711.687019,164.604475 L711.687019,164.604475 L714.207019,162.324475 C713.513685,161.497809 712.647019,160.864475 711.607019,160.424475 C710.567019,159.984475 709.393685,159.764475 708.087019,159.764475 C706.593685,159.764475 705.253685,160.074475 704.067019,160.694475 C702.880352,161.314475 701.953685,162.177809 701.287019,163.284475 C700.620352,164.391142 700.287019,165.644475 700.287019,167.044475 C700.287019,168.444475 700.620352,169.697809 701.287019,170.804475 C701.953685,171.911142 702.873685,172.774475 704.047019,173.394475 C705.220352,174.014475 706.540352,174.324475 708.007019,174.324475 Z M718.767019,174.044475 L719.867019,171.324475 L725.787019,171.324475 L726.887019,174.044475 L731.007019,174.044475 L724.807019,160.044475 L720.907019,160.044475 L714.727019,174.044475 L718.767019,174.044475 Z M724.627019,168.404475 L721.027019,168.404475 L722.827019,163.924475 L724.627019,168.404475 Z M742.867019,174.324475 C744.200352,174.324475 745.333685,174.121142 746.267019,173.714475 C747.200352,173.307809 747.900352,172.764475 748.367019,172.084475 C748.833685,171.404475 749.067019,170.644475 749.067019,169.804475 C749.067019,168.831142 748.810352,168.061142 748.297019,167.494475 C747.783685,166.927809 747.177019,166.514475 746.477019,166.254475 C745.777019,165.994475 744.893685,165.751142 743.827019,165.524475 C742.880352,165.324475 742.193685,165.131142 741.767019,164.944475 C741.340352,164.757809 741.127019,164.477809 741.127019,164.104475 C741.127019,163.731142 741.307019,163.427809 741.667019,163.194475 C742.027019,162.961142 742.600352,162.844475 743.387019,162.844475 C744.640352,162.844475 745.933685,163.204475 747.267019,163.924475 L747.267019,163.924475 L748.487019,160.984475 C747.807019,160.584475 747.020352,160.281142 746.127019,160.074475 C745.233685,159.867809 744.327019,159.764475 743.407019,159.764475 C742.060352,159.764475 740.923685,159.964475 739.997019,160.364475 C739.070352,160.764475 738.373685,161.307809 737.907019,161.994475 C737.440352,162.681142 737.207019,163.451142 737.207019,164.304475 C737.207019,165.277809 737.460352,166.051142 737.967019,166.624475 C738.473685,167.197809 739.080352,167.614475 739.787019,167.874475 C740.493685,168.134475 741.373685,168.377809 742.427019,168.604475 C743.387019,168.817809 744.083685,169.021142 744.517019,169.214475 C744.950352,169.407809 745.167019,169.704475 745.167019,170.104475 C745.167019,170.864475 744.407019,171.244475 742.887019,171.244475 C742.087019,171.244475 741.273685,171.117809 740.447019,170.864475 C739.620352,170.611142 738.893685,170.277809 738.267019,169.864475 L738.267019,169.864475 L736.967019,172.784475 C737.633685,173.251142 738.500352,173.624475 739.567019,173.904475 C740.633685,174.184475 741.733685,174.324475 742.867019,174.324475 Z M754.847019,174.044475 L754.847019,160.044475 L750.887019,160.044475 L750.887019,174.044475 L754.847019,174.044475 Z M764.667019,174.324475 C765.707019,174.324475 766.747019,174.171142 767.787019,173.864475 C768.827019,173.557809 769.747019,173.117809 770.547019,172.544475 L770.547019,172.544475 L770.547019,166.744475 L767.047019,166.744475 L767.047019,170.584475 C766.380352,170.891142 765.667019,171.044475 764.907019,171.044475 C764.133685,171.044475 763.447019,170.874475 762.847019,170.534475 C762.247019,170.194475 761.780352,169.721142 761.447019,169.114475 C761.113685,168.507809 760.947019,167.817809 760.947019,167.044475 C760.947019,165.831142 761.313685,164.861142 762.047019,164.134475 C762.780352,163.407809 763.747019,163.044475 764.947019,163.044475 C766.267019,163.044475 767.400352,163.564475 768.347019,164.604475 L768.347019,164.604475 L770.867019,162.324475 C770.173685,161.497809 769.307019,160.864475 768.267019,160.424475 C767.227019,159.984475 766.053685,159.764475 764.747019,159.764475 C763.253685,159.764475 761.913685,160.074475 760.727019,160.694475 C759.540352,161.314475 758.613685,162.177809 757.947019,163.284475 C757.280352,164.391142 756.947019,165.644475 756.947019,167.044475 C756.947019,168.444475 757.280352,169.697809 757.947019,170.804475 C758.613685,171.911142 759.533685,172.774475 760.707019,173.394475 C761.880352,174.014475 763.200352,174.324475 764.667019,174.324475 Z M776.947019,174.044475 L776.947019,166.584475 L783.127019,174.044475 L786.387019,174.044475 L786.387019,160.044475 L782.507019,160.044475 L782.507019,167.504475 L776.327019,160.044475 L773.067019,160.044475 L773.067019,174.044475 L776.947019,174.044475 Z" id="CONGASIGN" fill="#000000" fill-rule="nonzero"></path>
            <rect id="Rectangle" fill="#60C095" x="1072.12604" y="12.7838777" width="26" height="26"></rect>
            <rect id="Rectangle" fill="#60C095" x="340" y="155.347464" width="29.9467223" height="29.9467223"></rect>
            <polygon id="Fill-387" points="342.994672 189.786194 387.914756 189.786194 387.914756 155.347464 342.994672 155.347464"></polygon>
            <path d="M366.141991,168.038566 C365.451777,168.038566 364.640624,168.670517 364.378014,169.462608 C364.039386,170.484577 364.336549,171.834575 365.154613,172.98569 C365.275552,173.155301 365.405129,173.319746 365.544209,173.479886 C366.522084,172.719651 367.163923,171.905175 367.461951,171.044206 C367.698645,170.358876 367.609669,169.459164 367.239942,168.803967 C367.078402,168.516404 366.794196,168.154797 366.360545,168.060951 C366.289709,168.045454 366.216282,168.038566 366.141991,168.038566 M353.66803,181.225156 C352.201216,181.225156 350.733539,181.100316 349.284002,180.847191 L349.998404,176.776533 C353.979879,177.470474 358.125484,177.01416 361.859034,175.497134 C361.829663,175.456669 361.800292,175.415342 361.770922,175.374016 C360.182306,173.138942 359.685593,170.443251 360.44146,168.164268 C361.399467,165.277441 364.449713,163.418611 367.239078,164.022149 C368.751675,164.349317 370.035353,165.327377 370.853417,166.777248 C371.813152,168.475938 372.010109,170.57584 371.381228,172.392483 C370.951032,173.636582 370.203803,174.779948 369.148181,175.814832 C370.005982,176.117892 370.943257,176.327108 371.936682,176.431285 C374.853032,176.739512 377.922283,176.188492 380.891328,175.656413 L381.625598,179.723628 C378.37062,180.306503 375.004205,180.910042 371.501303,180.541547 C369.158548,180.29531 367.009294,179.590177 365.218538,178.513106 C361.640481,180.301337 357.659006,181.225156 353.66803,181.225156" id="Fill-388" fill="#231F20"></path>
            <rect id="Rectangle-Copy-2" fill="#CEE8DB" x="456.862658" y="51.1272033" width="19.6525365" height="19.6525365"></rect>
            <rect id="Rectangle-Copy-5" fill="#60C095" x="223" y="0" width="12" height="12"></rect>
            <rect id="Rectangle-Copy-3" fill="#60C095" x="995.490872" y="163.986796" width="19.6525365" height="19.6525365"></rect>
            <rect id="Rectangle-Copy-4" fill="#CEE8DB" x="1144.70144" y="124.681723" width="19.6525365" height="19.6525365"></rect>
            <rect id="Rectangle-Copy-6" fill="#CEE8DB" x="1208" y="180" width="10" height="10"></rect>
            <polygon id="Fill-366" points="1052.48323 50.0020848 1100.48323 50.0020848 1100.48323 0.870743572 1052.48323 0.870743572"></polygon>
            <polygon id="Fill-367" fill="#231F20" points="1063.62986 34.8707436 1086.62986 34.8707436 1086.62986 30.8707436 1063.62986 30.8707436"></polygon>
            <polygon id="Fill-368" fill="#231F20" points="1084.41454 15.8707436 1075.62986 23.9241485 1075.62986 26.8707436 1078.84517 26.8707436 1087.62986 18.8181157"></polygon>
            <rect id="Rectangle" x="0" y="75.3474635" width="5" height="40"></rect>
            <rect id="Rectangle-Copy" x="1435" y="75.3474635" width="5" height="40"></rect>
        </g>
    </g>
</svg>