<?xml version="1.0" encoding="UTF-8"?>
<svg width="98px" height="106px" viewBox="0 0 98 106" version="1.1" xmlns="http://www.w3.org/2000/svg" xmlns:xlink="http://www.w3.org/1999/xlink">
    <title>320-mobile</title>
    <g id="Page-1" stroke="none" stroke-width="1" fill="none" fill-rule="evenodd">
        <g id="320-Mobile" transform="translate(-111.000000, -16.000000)">
            <g id="320-mobile" transform="translate(111.000000, 16.000000)">
                <g id="Icon/Product/Sign">
                    <path d="M88.8215659,42.1134789 C88.8215659,64.8716303 70.3381295,83.3217572 47.538891,83.3217572 C24.741128,83.3217572 6.25916706,64.8716303 6.25916706,42.1134789 C6.25916706,19.3553276 24.741128,0.906673438 47.538891,0.906673438 C70.3381295,0.906673438 88.8215659,19.3553276 88.8215659,42.1134789 Z" id="Stroke-465" stroke="#939598" stroke-width="1.47548786" stroke-dasharray="2.94654899597168,5.156829986572266"></path>
                    <polyline id="Stroke-467" stroke="#000000" stroke-width="1.47548786" stroke-linecap="round" stroke-linejoin="round" points="28.5889053 31.1011376 28.5889053 64.0925038 65.9999 64.0925038 65.9999 28.6577146 56.7102285 19.386257 28.5889053 19.386257 28.5889053 26.7032707"></polyline>
                    <polygon id="Stroke-468" stroke="#000000" stroke-width="1.47548786" stroke-linecap="round" stroke-linejoin="round" points="56.7102285 28.6581564 56.7102285 19.385226 65.9999 28.6581564"></polygon>
                    <polygon id="Stroke-469" stroke="#000000" stroke-width="1.47548786" stroke-linecap="round" stroke-linejoin="round" points="47.29396 42.309807 43.5595002 46.0375368 26.3877725 28.8997004 30.1251832 25.1704977"></polygon>
                    <polygon id="Stroke-470" stroke="#000000" stroke-width="1.47548786" stroke-linecap="round" stroke-linejoin="round" points="47.2946978 42.3090706 49.2556211 47.9986084 43.557287 46.0397461"></polygon>
                    <line x1="34.075802" y1="50.7433723" x2="37.4163065" y2="54.0778568" id="Stroke-471" stroke="#000000" stroke-width="1.47548786" stroke-linecap="round" stroke-linejoin="round"></line>
                    <line x1="37.4166016" y1="50.7433723" x2="34.0760971" y2="54.0778568" id="Stroke-472" stroke="#000000" stroke-width="1.47548786" stroke-linecap="round" stroke-linejoin="round"></line>
                    <line x1="40.4575821" y1="53.6386592" x2="61.3549167" y2="53.6386592" id="Stroke-473" stroke="#000000" stroke-width="1.47548786" stroke-linecap="round" stroke-linejoin="round"></line>
                    <polygon id="Fill-474" fill="#60C095" points="0.355887673 50.4661859 12.4209519 50.4661859 12.4209519 38.4228644 0.355887673 38.4228644"></polygon>
                    <polygon id="Fill-475" fill="#60C095" points="59.6262351 9.33744033 68.9011518 9.33744033 68.9011518 0.079238192 59.6262351 0.079238192"></polygon>
                    <polygon id="Fill-476" fill="#60C095" points="72.588396 75.5160589 79.214812 75.5160589 79.214812 68.9015846 72.588396 68.9015846"></polygon>
                    <polyline id="Stroke-477" stroke="#000000" stroke-width="1.47548786" stroke-linecap="round" stroke-linejoin="round" points="56.8594003 19.2458964 55.6332699 15.8598629 45.7755355 19.2458964"></polyline>
                    <polyline id="Stroke-478" stroke="#000000" stroke-width="1.47548786" stroke-linecap="round" stroke-linejoin="round" points="66.1496621 59.5285018 70.2043027 58.1352057 66.1496621 46.3717217"></polyline>
                    <polyline id="Stroke-479" stroke="#000000" stroke-width="1.47548786" stroke-linecap="round" stroke-linejoin="round" points="32.6457592 63.9534688 34.8280057 70.28516 53.2642266 63.9534688"></polyline>
                    <polyline id="Stroke-480" stroke="#000000" stroke-width="1.47548786" stroke-linecap="round" stroke-linejoin="round" points="28.7379296 25.0961199 20.2568253 28.0093753 28.7379296 52.6159269"></polyline>
                </g>
                <path d="M6.83065351,105.103449 C7.75225351,105.103449 8.58265351,104.940249 9.32185351,104.613849 C10.0610535,104.287449 10.6754535,103.817049 11.1650535,103.202649 L11.1650535,103.202649 L9.35065351,101.561049 C8.69785351,102.348249 7.90585351,102.741849 6.97465351,102.741849 C6.42745351,102.741849 5.94025351,102.621849 5.51305351,102.381849 C5.08585351,102.141849 4.75465351,101.803449 4.51945351,101.366649 C4.28425351,100.929849 4.16665351,100.428249 4.16665351,99.8618485 C4.16665351,99.2954485 4.28425351,98.7938485 4.51945351,98.3570485 C4.75465351,97.9202485 5.08585351,97.5818485 5.51305351,97.3418485 C5.94025351,97.1018485 6.42745351,96.9818485 6.97465351,96.9818485 C7.90585351,96.9818485 8.69785351,97.3754485 9.35065351,98.1626485 L9.35065351,98.1626485 L11.1650535,96.5210485 C10.6754535,95.9066485 10.0610535,95.4362485 9.32185351,95.1098485 C8.58265351,94.7834485 7.75225351,94.6202485 6.83065351,94.6202485 C5.77465351,94.6202485 4.82665351,94.8434485 3.98665351,95.2898485 C3.14665351,95.7362485 2.48665351,96.3578485 2.00665351,97.1546485 C1.52665351,97.9514485 1.28665351,98.8538485 1.28665351,99.8618485 C1.28665351,100.869849 1.52665351,101.772249 2.00665351,102.569049 C2.48665351,103.365849 3.14665351,103.987449 3.98665351,104.433849 C4.82665351,104.880249 5.77465351,105.103449 6.83065351,105.103449 Z M17.2994535,105.103449 C18.3650535,105.103449 19.3226535,104.877849 20.1722535,104.426649 C21.0218535,103.975449 21.6890535,103.351449 22.1738535,102.554649 C22.6586535,101.757849 22.9010535,100.860249 22.9010535,99.8618485 C22.9010535,98.8634485 22.6586535,97.9658485 22.1738535,97.1690485 C21.6890535,96.3722485 21.0218535,95.7482485 20.1722535,95.2970485 C19.3226535,94.8458485 18.3650535,94.6202485 17.2994535,94.6202485 C16.2338535,94.6202485 15.2762535,94.8458485 14.4266535,95.2970485 C13.5770535,95.7482485 12.9098535,96.3722485 12.4250535,97.1690485 C11.9402535,97.9658485 11.6978535,98.8634485 11.6978535,99.8618485 C11.6978535,100.860249 11.9402535,101.757849 12.4250535,102.554649 C12.9098535,103.351449 13.5770535,103.975449 14.4266535,104.426649 C15.2762535,104.877849 16.2338535,105.103449 17.2994535,105.103449 Z M17.2994535,102.741849 C16.7906535,102.741849 16.3298535,102.621849 15.9170535,102.381849 C15.5042535,102.141849 15.1778535,101.803449 14.9378535,101.366649 C14.6978535,100.929849 14.5778535,100.428249 14.5778535,99.8618485 C14.5778535,99.2954485 14.6978535,98.7938485 14.9378535,98.3570485 C15.1778535,97.9202485 15.5042535,97.5818485 15.9170535,97.3418485 C16.3298535,97.1018485 16.7906535,96.9818485 17.2994535,96.9818485 C17.8082535,96.9818485 18.2690535,97.1018485 18.6818535,97.3418485 C19.0946535,97.5818485 19.4210535,97.9202485 19.6610535,98.3570485 C19.9010535,98.7938485 20.0210535,99.2954485 20.0210535,99.8618485 C20.0210535,100.428249 19.9010535,100.929849 19.6610535,101.366649 C19.4210535,101.803449 19.0946535,102.141849 18.6818535,102.381849 C18.2690535,102.621849 17.8082535,102.741849 17.2994535,102.741849 Z M27.1922535,104.901849 L27.1922535,99.5306485 L31.6418535,104.901849 L33.9890535,104.901849 L33.9890535,94.8218485 L31.1954535,94.8218485 L31.1954535,100.193049 L26.7458535,94.8218485 L24.3986535,94.8218485 L24.3986535,104.901849 L27.1922535,104.901849 Z M41.0450535,105.103449 C41.7938535,105.103449 42.5426535,104.993049 43.2914535,104.772249 C44.0402535,104.551449 44.7026535,104.234649 45.2786535,103.821849 L45.2786535,103.821849 L45.2786535,99.6458485 L42.7586535,99.6458485 L42.7586535,102.410649 C42.2786535,102.631449 41.7650535,102.741849 41.2178535,102.741849 C40.6610535,102.741849 40.1666535,102.619449 39.7346535,102.374649 C39.3026535,102.129849 38.9666535,101.789049 38.7266535,101.352249 C38.4866535,100.915449 38.3666535,100.418649 38.3666535,99.8618485 C38.3666535,98.9882485 38.6306535,98.2898485 39.1586535,97.7666485 C39.6866535,97.2434485 40.3826535,96.9818485 41.2466535,96.9818485 C42.1970535,96.9818485 43.0130535,97.3562485 43.6946535,98.1050485 L43.6946535,98.1050485 L45.5090535,96.4634485 C45.0098535,95.8682485 44.3858535,95.4122485 43.6370535,95.0954485 C42.8882535,94.7786485 42.0434535,94.6202485 41.1026535,94.6202485 C40.0274535,94.6202485 39.0626535,94.8434485 38.2082535,95.2898485 C37.3538535,95.7362485 36.6866535,96.3578485 36.2066535,97.1546485 C35.7266535,97.9514485 35.4866535,98.8538485 35.4866535,99.8618485 C35.4866535,100.869849 35.7266535,101.772249 36.2066535,102.569049 C36.6866535,103.365849 37.3490535,103.987449 38.1938535,104.433849 C39.0386535,104.880249 39.9890535,105.103449 41.0450535,105.103449 Z M48.7922535,104.901849 L49.5842535,102.943449 L53.8466535,102.943449 L54.6386535,104.901849 L57.6050535,104.901849 L53.1410535,94.8218485 L50.3330535,94.8218485 L45.8834535,104.901849 L48.7922535,104.901849 Z M53.0114535,100.841049 L50.4194535,100.841049 L51.7154535,97.6154485 L53.0114535,100.841049 Z M66.1442535,105.103449 C67.1042535,105.103449 67.9202535,104.957049 68.5922535,104.664249 C69.2642535,104.371449 69.7682535,103.980249 70.1042535,103.490649 C70.4402535,103.001049 70.6082535,102.453849 70.6082535,101.849049 C70.6082535,101.148249 70.4234535,100.593849 70.0538535,100.185849 C69.6842535,99.7778485 69.2474535,99.4802485 68.7434535,99.2930485 C68.2394535,99.1058485 67.6034535,98.9306485 66.8354535,98.7674485 C66.1538535,98.6234485 65.6594535,98.4842485 65.3522535,98.3498485 C65.0450535,98.2154485 64.8914535,98.0138485 64.8914535,97.7450485 C64.8914535,97.4762485 65.0210535,97.2578485 65.2802535,97.0898485 C65.5394535,96.9218485 65.9522535,96.8378485 66.5186535,96.8378485 C67.4210535,96.8378485 68.3522535,97.0970485 69.3122535,97.6154485 L69.3122535,97.6154485 L70.1906535,95.4986485 C69.7010535,95.2106485 69.1346535,94.9922485 68.4914535,94.8434485 C67.8482535,94.6946485 67.1954535,94.6202485 66.5330535,94.6202485 C65.5634535,94.6202485 64.7450535,94.7642485 64.0778535,95.0522485 C63.4106535,95.3402485 62.9090535,95.7314485 62.5730535,96.2258485 C62.2370535,96.7202485 62.0690535,97.2746485 62.0690535,97.8890485 C62.0690535,98.5898485 62.2514535,99.1466485 62.6162535,99.5594485 C62.9810535,99.9722485 63.4178535,100.272249 63.9266535,100.459449 C64.4354535,100.646649 65.0690535,100.821849 65.8274535,100.985049 C66.5186535,101.138649 67.0202535,101.285049 67.3322535,101.424249 C67.6442535,101.563449 67.8002535,101.777049 67.8002535,102.065049 C67.8002535,102.612249 67.2530535,102.885849 66.1586535,102.885849 C65.5826535,102.885849 64.9970535,102.794649 64.4018535,102.612249 C63.8066535,102.429849 63.2834535,102.189849 62.8322535,101.892249 L62.8322535,101.892249 L61.8962535,103.994649 C62.3762535,104.330649 63.0002535,104.599449 63.7682535,104.801049 C64.5362535,105.002649 65.3282535,105.103449 66.1442535,105.103449 Z M74.7698535,104.901849 L74.7698535,94.8218485 L71.9186535,94.8218485 L71.9186535,104.901849 L74.7698535,104.901849 Z M81.8402535,105.103449 C82.5890535,105.103449 83.3378535,104.993049 84.0866535,104.772249 C84.8354535,104.551449 85.4978535,104.234649 86.0738535,103.821849 L86.0738535,103.821849 L86.0738535,99.6458485 L83.5538535,99.6458485 L83.5538535,102.410649 C83.0738535,102.631449 82.5602535,102.741849 82.0130535,102.741849 C81.4562535,102.741849 80.9618535,102.619449 80.5298535,102.374649 C80.0978535,102.129849 79.7618535,101.789049 79.5218535,101.352249 C79.2818535,100.915449 79.1618535,100.418649 79.1618535,99.8618485 C79.1618535,98.9882485 79.4258535,98.2898485 79.9538535,97.7666485 C80.4818535,97.2434485 81.1778535,96.9818485 82.0418535,96.9818485 C82.9922535,96.9818485 83.8082535,97.3562485 84.4898535,98.1050485 L84.4898535,98.1050485 L86.3042535,96.4634485 C85.8050535,95.8682485 85.1810535,95.4122485 84.4322535,95.0954485 C83.6834535,94.7786485 82.8386535,94.6202485 81.8978535,94.6202485 C80.8226535,94.6202485 79.8578535,94.8434485 79.0034535,95.2898485 C78.1490535,95.7362485 77.4818535,96.3578485 77.0018535,97.1546485 C76.5218535,97.9514485 76.2818535,98.8538485 76.2818535,99.8618485 C76.2818535,100.869849 76.5218535,101.772249 77.0018535,102.569049 C77.4818535,103.365849 78.1442535,103.987449 78.9890535,104.433849 C79.8338535,104.880249 80.7842535,105.103449 81.8402535,105.103449 Z M90.6818535,104.901849 L90.6818535,99.5306485 L95.1314535,104.901849 L97.4786535,104.901849 L97.4786535,94.8218485 L94.6850535,94.8218485 L94.6850535,100.193049 L90.2354535,94.8218485 L87.8882535,94.8218485 L87.8882535,104.901849 L90.6818535,104.901849 Z" id="CONGASIGN" fill="#000000" fill-rule="nonzero"></path>
            </g>
        </g>
    </g>
</svg>