<?xml version="1.0" encoding="UTF-8"?>
<svg width="768px" height="137px" viewBox="0 0 768 137" version="1.1" xmlns="http://www.w3.org/2000/svg" xmlns:xlink="http://www.w3.org/1999/xlink">
    <title>768-sign-header</title>
    <g id="Page-1" stroke="none" stroke-width="1" fill="none" fill-rule="evenodd">
        <g id="768-sign-header">
            <g id="Icon/Product/Sign" transform="translate(333.160000, 16.890174)">
                <path d="M88.8215659,42.1134789 C88.8215659,64.8716303 70.3381295,83.3217572 47.538891,83.3217572 C24.741128,83.3217572 6.25916706,64.8716303 6.25916706,42.1134789 C6.25916706,19.3553276 24.741128,0.906673438 47.538891,0.906673438 C70.3381295,0.906673438 88.8215659,19.3553276 88.8215659,42.1134789 Z" id="Stroke-465" stroke="#939598" stroke-width="1.47548786" stroke-dasharray="2.94654899597168,5.156829986572266"></path>
                <polyline id="Stroke-467" stroke="#000000" stroke-width="1.47548786" stroke-linecap="round" stroke-linejoin="round" points="28.5889053 31.1011376 28.5889053 64.0925038 65.9999 64.0925038 65.9999 28.6577146 56.7102285 19.386257 28.5889053 19.386257 28.5889053 26.7032707"></polyline>
                <polygon id="Stroke-468" stroke="#000000" stroke-width="1.47548786" stroke-linecap="round" stroke-linejoin="round" points="56.7102285 28.6581564 56.7102285 19.385226 65.9999 28.6581564"></polygon>
                <polygon id="Stroke-469" stroke="#000000" stroke-width="1.47548786" stroke-linecap="round" stroke-linejoin="round" points="47.29396 42.309807 43.5595002 46.0375368 26.3877725 28.8997004 30.1251832 25.1704977"></polygon>
                <polygon id="Stroke-470" stroke="#000000" stroke-width="1.47548786" stroke-linecap="round" stroke-linejoin="round" points="47.2946978 42.3090706 49.2556211 47.9986084 43.557287 46.0397461"></polygon>
                <line x1="34.075802" y1="50.7433723" x2="37.4163065" y2="54.0778568" id="Stroke-471" stroke="#000000" stroke-width="1.47548786" stroke-linecap="round" stroke-linejoin="round"></line>
                <line x1="37.4166016" y1="50.7433723" x2="34.0760971" y2="54.0778568" id="Stroke-472" stroke="#000000" stroke-width="1.47548786" stroke-linecap="round" stroke-linejoin="round"></line>
                <line x1="40.4575821" y1="53.6386592" x2="61.3549167" y2="53.6386592" id="Stroke-473" stroke="#000000" stroke-width="1.47548786" stroke-linecap="round" stroke-linejoin="round"></line>
                <polygon id="Fill-474" fill="#60C095" points="0.355887673 50.4661859 12.4209519 50.4661859 12.4209519 38.4228644 0.355887673 38.4228644"></polygon>
                <polygon id="Fill-475" fill="#60C095" points="59.6262351 9.33744033 68.9011518 9.33744033 68.9011518 0.079238192 59.6262351 0.079238192"></polygon>
                <polygon id="Fill-476" fill="#60C095" points="72.588396 75.5160589 79.214812 75.5160589 79.214812 68.9015846 72.588396 68.9015846"></polygon>
                <polyline id="Stroke-477" stroke="#000000" stroke-width="1.47548786" stroke-linecap="round" stroke-linejoin="round" points="56.8594003 19.2458964 55.6332699 15.8598629 45.7755355 19.2458964"></polyline>
                <polyline id="Stroke-478" stroke="#000000" stroke-width="1.47548786" stroke-linecap="round" stroke-linejoin="round" points="66.1496621 59.5285018 70.2043027 58.1352057 66.1496621 46.3717217"></polyline>
                <polyline id="Stroke-479" stroke="#000000" stroke-width="1.47548786" stroke-linecap="round" stroke-linejoin="round" points="32.6457592 63.9534688 34.8280057 70.28516 53.2642266 63.9534688"></polyline>
                <polyline id="Stroke-480" stroke="#000000" stroke-width="1.47548786" stroke-linecap="round" stroke-linejoin="round" points="28.7379296 25.0961199 20.2568253 28.0093753 28.7379296 52.6159269"></polyline>
            </g>
            <path d="M339.544,122.4832 C340.4656,122.4832 341.296,122.32 342.0352,121.9936 C342.7744,121.6672 343.3888,121.1968 343.8784,120.5824 L343.8784,120.5824 L342.064,118.9408 C341.4112,119.728 340.6192,120.1216 339.688,120.1216 C339.1408,120.1216 338.6536,120.0016 338.2264,119.7616 C337.7992,119.5216 337.468,119.1832 337.2328,118.7464 C336.9976,118.3096 336.88,117.808 336.88,117.2416 C336.88,116.6752 336.9976,116.1736 337.2328,115.7368 C337.468,115.3 337.7992,114.9616 338.2264,114.7216 C338.6536,114.4816 339.1408,114.3616 339.688,114.3616 C340.6192,114.3616 341.4112,114.7552 342.064,115.5424 L342.064,115.5424 L343.8784,113.9008 C343.3888,113.2864 342.7744,112.816 342.0352,112.4896 C341.296,112.1632 340.4656,112 339.544,112 C338.488,112 337.54,112.2232 336.7,112.6696 C335.86,113.116 335.2,113.7376 334.72,114.5344 C334.24,115.3312 334,116.2336 334,117.2416 C334,118.2496 334.24,119.152 334.72,119.9488 C335.2,120.7456 335.86,121.3672 336.7,121.8136 C337.54,122.26 338.488,122.4832 339.544,122.4832 Z M350.0128,122.4832 C351.0784,122.4832 352.036,122.2576 352.8856,121.8064 C353.7352,121.3552 354.4024,120.7312 354.8872,119.9344 C355.372,119.1376 355.6144,118.24 355.6144,117.2416 C355.6144,116.2432 355.372,115.3456 354.8872,114.5488 C354.4024,113.752 353.7352,113.128 352.8856,112.6768 C352.036,112.2256 351.0784,112 350.0128,112 C348.9472,112 347.9896,112.2256 347.14,112.6768 C346.2904,113.128 345.6232,113.752 345.1384,114.5488 C344.6536,115.3456 344.4112,116.2432 344.4112,117.2416 C344.4112,118.24 344.6536,119.1376 345.1384,119.9344 C345.6232,120.7312 346.2904,121.3552 347.14,121.8064 C347.9896,122.2576 348.9472,122.4832 350.0128,122.4832 Z M350.0128,120.1216 C349.504,120.1216 349.0432,120.0016 348.6304,119.7616 C348.2176,119.5216 347.8912,119.1832 347.6512,118.7464 C347.4112,118.3096 347.2912,117.808 347.2912,117.2416 C347.2912,116.6752 347.4112,116.1736 347.6512,115.7368 C347.8912,115.3 348.2176,114.9616 348.6304,114.7216 C349.0432,114.4816 349.504,114.3616 350.0128,114.3616 C350.5216,114.3616 350.9824,114.4816 351.3952,114.7216 C351.808,114.9616 352.1344,115.3 352.3744,115.7368 C352.6144,116.1736 352.7344,116.6752 352.7344,117.2416 C352.7344,117.808 352.6144,118.3096 352.3744,118.7464 C352.1344,119.1832 351.808,119.5216 351.3952,119.7616 C350.9824,120.0016 350.5216,120.1216 350.0128,120.1216 Z M359.9056,122.2816 L359.9056,116.9104 L364.3552,122.2816 L366.7024,122.2816 L366.7024,112.2016 L363.9088,112.2016 L363.9088,117.5728 L359.4592,112.2016 L357.112,112.2016 L357.112,122.2816 L359.9056,122.2816 Z M373.7584,122.4832 C374.5072,122.4832 375.256,122.3728 376.0048,122.152 C376.7536,121.9312 377.416,121.6144 377.992,121.2016 L377.992,121.2016 L377.992,117.0256 L375.472,117.0256 L375.472,119.7904 C374.992,120.0112 374.4784,120.1216 373.9312,120.1216 C373.3744,120.1216 372.88,119.9992 372.448,119.7544 C372.016,119.5096 371.68,119.1688 371.44,118.732 C371.2,118.2952 371.08,117.7984 371.08,117.2416 C371.08,116.368 371.344,115.6696 371.872,115.1464 C372.4,114.6232 373.096,114.3616 373.96,114.3616 C374.9104,114.3616 375.7264,114.736 376.408,115.4848 L376.408,115.4848 L378.2224,113.8432 C377.7232,113.248 377.0992,112.792 376.3504,112.4752 C375.6016,112.1584 374.7568,112 373.816,112 C372.7408,112 371.776,112.2232 370.9216,112.6696 C370.0672,113.116 369.4,113.7376 368.92,114.5344 C368.44,115.3312 368.2,116.2336 368.2,117.2416 C368.2,118.2496 368.44,119.152 368.92,119.9488 C369.4,120.7456 370.0624,121.3672 370.9072,121.8136 C371.752,122.26 372.7024,122.4832 373.7584,122.4832 Z M381.5056,122.2816 L382.2976,120.3232 L386.56,120.3232 L387.352,122.2816 L390.3184,122.2816 L385.8544,112.2016 L383.0464,112.2016 L378.5968,122.2816 L381.5056,122.2816 Z M385.7248,118.2208 L383.1328,118.2208 L384.4288,114.9952 L385.7248,118.2208 Z M398.8576,122.4832 C399.8176,122.4832 400.6336,122.3368 401.3056,122.044 C401.9776,121.7512 402.4816,121.36 402.8176,120.8704 C403.1536,120.3808 403.3216,119.8336 403.3216,119.2288 C403.3216,118.528 403.1368,117.9736 402.7672,117.5656 C402.3976,117.1576 401.9608,116.86 401.4568,116.6728 C400.9528,116.4856 400.3168,116.3104 399.5488,116.1472 C398.8672,116.0032 398.3728,115.864 398.0656,115.7296 C397.7584,115.5952 397.6048,115.3936 397.6048,115.1248 C397.6048,114.856 397.7344,114.6376 397.9936,114.4696 C398.2528,114.3016 398.6656,114.2176 399.232,114.2176 C400.1344,114.2176 401.0656,114.4768 402.0256,114.9952 L402.0256,114.9952 L402.904,112.8784 C402.4144,112.5904 401.848,112.372 401.2048,112.2232 C400.5616,112.0744 399.9088,112 399.2464,112 C398.2768,112 397.4584,112.144 396.7912,112.432 C396.124,112.72 395.6224,113.1112 395.2864,113.6056 C394.9504,114.1 394.7824,114.6544 394.7824,115.2688 C394.7824,115.9696 394.9648,116.5264 395.3296,116.9392 C395.6944,117.352 396.1312,117.652 396.64,117.8392 C397.1488,118.0264 397.7824,118.2016 398.5408,118.3648 C399.232,118.5184 399.7336,118.6648 400.0456,118.804 C400.3576,118.9432 400.5136,119.1568 400.5136,119.4448 C400.5136,119.992 399.9664,120.2656 398.872,120.2656 C398.296,120.2656 397.7104,120.1744 397.1152,119.992 C396.52,119.8096 395.9968,119.5696 395.5456,119.272 L395.5456,119.272 L394.6096,121.3744 C395.0896,121.7104 395.7136,121.9792 396.4816,122.1808 C397.2496,122.3824 398.0416,122.4832 398.8576,122.4832 Z M407.4832,122.2816 L407.4832,112.2016 L404.632,112.2016 L404.632,122.2816 L407.4832,122.2816 Z M414.5536,122.4832 C415.3024,122.4832 416.0512,122.3728 416.8,122.152 C417.5488,121.9312 418.2112,121.6144 418.7872,121.2016 L418.7872,121.2016 L418.7872,117.0256 L416.2672,117.0256 L416.2672,119.7904 C415.7872,120.0112 415.2736,120.1216 414.7264,120.1216 C414.1696,120.1216 413.6752,119.9992 413.2432,119.7544 C412.8112,119.5096 412.4752,119.1688 412.2352,118.732 C411.9952,118.2952 411.8752,117.7984 411.8752,117.2416 C411.8752,116.368 412.1392,115.6696 412.6672,115.1464 C413.1952,114.6232 413.8912,114.3616 414.7552,114.3616 C415.7056,114.3616 416.5216,114.736 417.2032,115.4848 L417.2032,115.4848 L419.0176,113.8432 C418.5184,113.248 417.8944,112.792 417.1456,112.4752 C416.3968,112.1584 415.552,112 414.6112,112 C413.536,112 412.5712,112.2232 411.7168,112.6696 C410.8624,113.116 410.1952,113.7376 409.7152,114.5344 C409.2352,115.3312 408.9952,116.2336 408.9952,117.2416 C408.9952,118.2496 409.2352,119.152 409.7152,119.9488 C410.1952,120.7456 410.8576,121.3672 411.7024,121.8136 C412.5472,122.26 413.4976,122.4832 414.5536,122.4832 Z M423.3952,122.2816 L423.3952,116.9104 L427.8448,122.2816 L430.192,122.2816 L430.192,112.2016 L427.3984,112.2016 L427.3984,117.5728 L422.9488,112.2016 L420.6016,112.2016 L420.6016,122.2816 L423.3952,122.2816 Z" id="CONGASIGN" fill="#000000" fill-rule="nonzero"></path>
            <rect id="Rectangle" fill="#60C095" x="636.370746" y="9.20439194" width="18.72" height="18.72"></rect>
            <rect id="Rectangle" fill="#60C095" x="109.24" y="111.850174" width="21.56164" height="21.56164"></rect>
            <polygon id="Fill-387" points="111.396164 136.64606 143.738624 136.64606 143.738624 111.850174 111.396164 111.850174"></polygon>
            <path d="M128.062234,120.987768 C127.565279,120.987768 126.981249,121.442772 126.79217,122.013078 C126.548358,122.748895 126.762316,123.720894 127.351322,124.549697 C127.438397,124.671816 127.531693,124.790217 127.63183,124.905518 C128.335901,124.358148 128.798025,123.771726 129.012604,123.151829 C129.183024,122.658391 129.118961,122.010598 128.852758,121.538856 C128.73645,121.331811 128.531821,121.071454 128.219592,121.003885 C128.168591,120.992727 128.115723,120.987768 128.062234,120.987768 M119.080981,130.482112 C118.024876,130.482112 116.968148,130.392227 115.924482,130.209978 L116.438851,127.279104 C119.305513,127.778741 122.290348,127.450195 124.978504,126.357937 C124.957357,126.328802 124.936211,126.299046 124.915064,126.269291 C123.77126,124.660038 123.413627,122.71914 123.957851,121.078273 C124.647616,118.999758 126.843794,117.6614 128.852136,118.095947 C129.941206,118.331508 130.865454,119.035712 131.45446,120.079618 C132.145469,121.302675 132.287278,122.814605 131.834484,124.122588 C131.524743,125.018339 130.986738,125.841562 130.226691,126.586679 C130.844307,126.804883 131.519145,126.955518 132.234411,127.030525 C134.334183,127.252448 136.544044,126.855714 138.681756,126.472618 L139.210431,129.401012 C136.866846,129.820682 134.443028,130.25523 131.920938,129.989914 C130.234154,129.812624 128.686692,129.304928 127.397347,128.529436 C124.821146,129.816963 121.954484,130.482112 119.080981,130.482112" id="Fill-388" fill="#231F20"></path>
            <rect id="Rectangle-Copy-2" fill="#CEE8DB" x="193.381114" y="36.8115864" width="14.1498263" height="14.1498263"></rect>
            <rect id="Rectangle-Copy-5" fill="#60C095" x="25" y="0" width="8.64" height="8.64"></rect>
            <rect id="Rectangle-Copy-3" fill="#60C095" x="581.193428" y="118.070493" width="14.1498263" height="14.1498263"></rect>
            <rect id="Rectangle-Copy-4" fill="#CEE8DB" x="688.625033" y="89.7708409" width="14.1498263" height="14.1498263"></rect>
            <rect id="Rectangle-Copy-6" fill="#CEE8DB" x="734.2" y="129.6" width="7.2" height="7.2"></rect>
            <polygon id="Fill-366" points="622.227924 36.001501 656.787924 36.001501 656.787924 0.626935372 622.227924 0.626935372"></polygon>
            <polygon id="Fill-367" fill="#231F20" points="630.253498 25.1069354 646.813498 25.1069354 646.813498 22.2269354 630.253498 22.2269354"></polygon>
            <polygon id="Fill-368" fill="#231F20" points="645.218471 11.4269354 638.893498 17.2253869 638.893498 19.3469354 641.208524 19.3469354 647.533498 13.5490433"></polygon>
            <rect id="Rectangle" x="0" y="54" width="3.6" height="28.8"></rect>
            <rect id="Rectangle-Copy" x="764" y="54" width="3.6" height="28.8"></rect>
        </g>
    </g>
</svg>