<?xml version="1.0" encoding="UTF-8"?>
<svg width="48px" height="74px" viewBox="0 0 48 74" version="1.1" xmlns="http://www.w3.org/2000/svg" xmlns:xlink="http://www.w3.org/1999/xlink">
    <path d="M29.5775909,8.97778879 C34.2899453,8.97778879 39.5362846,9.43495176 45.6340466,10.3760385 L46.5420668,10.5165325 L47.88072,2.18947614 L47.1055808,2.00438089 C42.0290339,0.788996391 35.1462896,0.00178405063 29.5775909,0.00178405063 C9.4018238,0.00178405063 -0.000738227848,7.79808532 -0.000738227848,24.5414005 L-0.000738227848,48.692986 C-0.000738227848,65.4340712 9.4018238,73.2326023 29.5775909,73.2326023 C35.1462896,73.2326023 42.0290339,72.4453902 47.1055808,71.2322357 L47.88072,71.0404502 L46.5420668,62.7111636 L45.6340466,62.8516578 C39.5436668,63.7949745 34.2948668,64.2565978 29.5775909,64.2565978 C15.3962339,64.2565978 10.8462896,60.5435423 10.8462896,48.9739738 L10.8462896,24.2626426 C10.8462896,12.6908442 15.3962339,8.97778879 29.5775909,8.97778879" id="Fill-1" fill="#FEFEFE" fill-rule="nonzero" mask="url(#mask-2)"></path>
</svg>