<svg xmlns="http://www.w3.org/2000/svg" xmlns:xlink="http://www.w3.org/1999/xlink">
	<symbol viewBox="0 0 48 48" id="springcmCheck">
		<g>
			<path fill="none" d="M19.2,18.3h0.3c5.1,0,7.4-1.8,7.4-3.5c0-0.6-0.4-3.4-7.6-3.4c-5.2,0-8,1.6-8,3.2C11.2,18,16.8,18.3,19.2,18.3z
				"/>
			<polygon fill="#FFFFFF" points="19.1,42 19.1,42 19.1,42 "/>
			<path fill="#FFFFFF" d="M10.6,33.3L10.6,33.3c0-0.1-0.1-0.3-0.1-0.3c0,0-0.1,0-0.2,0c-1.6,0.4-2.7,1.4-2.7,2.9c0,1.6,1,3,3,4.2
				c2,1.2,4.6,1.8,7.5,1.8l1.2,0c1.1,0,2.2-0.2,3.2-0.3l-4.3-5.1C14.8,36.5,11.4,35.7,10.6,33.3z"/>
			<path fill="#FFFFFF" d="M25.3,31.4c4.1-1.4,6.7-4,6.7-7.1c0-1.5-0.3-2.8-0.9-3.9c-0.1-0.2-0.1-0.3-0.3-0.4
				c-1.1,1.4-2.7,2.5-4.6,3.2c0.6,0.6,0.4,1.2,0.4,1.3c0,1.9-4.6,2.6-7.3,2.6c-3.4,0-7.7-0.7-8.6-3.3l0-0.1c0,0-0.1-0.2-0.1-0.2
				c0,0-0.1,0-0.2,0c-1.6,0.4-2.7,1.4-2.7,2.9c0,1.6,1,3,3,4.2c1.9,1.1,4.4,1.8,7.1,1.8l5-4.3L25.3,31.4z"/>
			<polygon fill="#FFFFFF" points="19.1,32.4 19.1,32.4 19.1,32.4 "/>
			<path fill="#FFFFFF" d="M18.5,22.8h1.2c7.2-0.3,12-3.6,12-8.4c0-1-0.2-1.9-0.5-2.7l-0.1-0.1l0-0.1c0.4-1.5,0.5-3.6-0.7-4.6
				C29.5,6.2,28.8,6,28.4,6c-0.7,0-1.4,0.4-1.9,1.2l-0.2,0.3L26,7.4c-2.9-1.1-5.9-1.1-6.7-1.1C12,6.3,6.8,9.9,6.8,14.9
				C6.8,21.8,14.1,22.8,18.5,22.8z M19.2,11.4c7.3,0,7.6,2.9,7.6,3.4c0,1.7-2.3,3.5-7.4,3.5h-0.3c-2.4,0-8-0.4-8-3.8
				C11.2,13,14,11.4,19.2,11.4z"/>
			<path fill="#FFFFFF" d="M31.9,37.1l3-3.5l6.3-7.3l-3-2.6l-5.3,6.2l-0.9,1.1l-5.2,6l-4.5-5.2l-3.1,2.6l6,7c0.4,0.4,0.9,0.7,1.5,0.7
				c0,0,0,0,0,0c0.6,0,1.1-0.3,1.5-0.7L31.9,37.1z"/>
		</g>
	</symbol>

	<symbol viewBox="0 0 48 48" id="springcmEye">
		<g>
			<path fill="#FFFFFF" d="M17.5,36.6c-3.1-0.2-6.3-1-7-3.3l0-0.1c0,0-0.1-0.2-0.1-0.2c0,0-0.1,0-0.2,0c-1.6,0.4-2.7,1.4-2.7,2.9
				c0,1.6,1,3,3,4.2c2,1.2,4.6,1.8,7.5,1.8l1.2,0c1.3,0,2.5-0.2,3.6-0.4C20.3,39.9,18.5,37.9,17.5,36.6z"/>
			<path fill="#FFFFFF" d="M22.2,26.9C21.1,27,20,27.1,19,27.1c-3.4,0-7.7-0.7-8.6-3.3l0-0.1c0,0-0.1-0.2-0.1-0.2c0,0-0.1,0-0.2,0
				c-1.6,0.4-2.7,1.4-2.7,2.9c0,1.6,1,3,3,4.2c1.8,1.1,4.1,1.7,6.6,1.8C17.7,31.3,19.6,28.9,22.2,26.9z"/>
			<path fill="#FFFFFF" d="M31.8,23.9c-0.1-1.3-0.3-2.5-0.9-3.5c-0.1-0.2-0.1-0.3-0.3-0.4c-1.1,1.4-2.7,2.5-4.6,3.2
				c0.5,0.6,0.4,1.1,0.4,1.3c1.2-0.5,2.6-0.8,4-0.8C30.8,23.7,31.3,23.8,31.8,23.9z"/>
			<path fill="#FFFFFF" d="M18.4,22.8h1.2c7.2-0.3,12-3.6,12-8.4c0-1-0.2-1.9-0.5-2.7L31,11.6l0-0.1c0.4-1.5,0.5-3.6-0.7-4.6
				C29.4,6.2,28.7,6,28.2,6c-0.7,0-1.4,0.4-1.9,1.2l-0.2,0.3l-0.3-0.1c-2.9-1.1-5.9-1.1-6.7-1.1c-7.2,0-12.5,3.6-12.5,8.6
				C6.6,21.8,14,22.8,18.4,22.8z M19.1,11.4c7.3,0,7.6,2.9,7.6,3.4c0,1.7-2.3,3.5-7.4,3.5H19c-2.4,0-8-0.4-8-3.8
				C11,13,13.8,11.4,19.1,11.4z"/>
			<g>
				<path fill="#FFFFFF" d="M30.3,42c-5.9,0-10.4-6.8-10.6-7.1l-0.5-0.8l0.5-0.8c0.2-0.3,4.7-7.1,10.6-7.1s10.4,6.8,10.6,7.1l0.5,0.8
					l-0.5,0.8C40.7,35.2,36.2,42,30.3,42z M22.8,34.1c1.2,1.6,4.2,4.9,7.5,4.9s6.3-3.3,7.5-4.9c-1.2-1.6-4.2-4.9-7.5-4.9
					S24.1,32.5,22.8,34.1z"/>
				<circle fill="#FFFFFF" cx="30.3" cy="34.1" r="3"/>
			</g>
		</g>
	</symbol>
</svg>