<svg id="Slay_Icon" data-name="Slay Icon" xmlns="http://www.w3.org/2000/svg" viewBox="0 0 312 233">
  <g id="Group_169" data-name="Group 169">
    <path id="Path_235" data-name="Path 235" d="M161.72,94.77,194.93,70A15.05,15.05,0,0,0,179.88,55.2H31.73A14.86,14.86,0,0,0,16.9,70V188.57c0,9.09,3.81,11,3.81,11L55.06,174h-6.6a5.61,5.61,0,0,1-4.82-8.52l32.6-56.68a3.48,3.48,0,0,1,4.62-1.68,3.43,3.43,0,0,1,1.68,1.68l18.39,31.27,43.35-32.31h0A14.8,14.8,0,0,1,147,78.41a15.26,15.26,0,0,1,14.76,15.75h0v.6Z" />
    <path id="Mask-2" d="M194.42,127.91,152.1,159.74,160,171.25s4.63,7.22-4.07,7.4-28.21,0-28.21,0l-39,29.64h90.93a14.86,14.86,0,0,0,14.82-14.82Z" />
    <g id="Group_173" data-name="Group 173">
      <path id="Path_235-2" data-name="Path 235-2" d="M188.32,44.31h0l56.74,77.08h0v.08a19.12,19.12,0,0,0,26.73,4.08h0a19.16,19.16,0,1,0-27.66-25.48L208.31,51.43a19.18,19.18,0,1,0-20.2-7.18l.06.07Zm21.1-15.74a7.2,7.2,0,0,1-1.52,10,7.1,7.1,0,0,1-10-1.47h0a7.2,7.2,0,0,1,1.52-10,7.12,7.12,0,0,1,9.95,1.47Zm46.92,75.8a7.12,7.12,0,0,1,10,1.47h0a7.2,7.2,0,0,1-1.52,10,7.1,7.1,0,0,1-9.94-1.46h0a7.2,7.2,0,0,1,1.51-10Z"/>
      <path id="Path_236" data-name="Path 236" d="M34.41,220l17.17-1.33a3.75,3.75,0,0,0,2-.79L209,102.06l-12.54-17L38.36,197.17a3.8,3.8,0,0,0-1.34,1.7L30.6,214.8a3.79,3.79,0,0,0,2.1,4.93A4,4,0,0,0,34.41,220Z" />
      <path id="Path_237" data-name="Path 237" d="M276.6,52.43a15.47,15.47,0,1,0-10.11-6.11A15.48,15.48,0,0,0,276.6,52.43Z" />
      <path id="Path_238" data-name="Path 238" d="M268.51,57.59a27.52,27.52,0,0,1-12.42-16.9l-26.3,19.49,12.46,16.87Z" />
    </g>
  </g>
</svg>
