<?xml version="1.0" encoding="utf-8"?>
<!-- Generator: Adobe Illustrator 23.0.1, SVG Export Plug-In . SVG Version: 6.00 Build 0)  -->
<svg version="1.1" id="Layer_1" xmlns="http://www.w3.org/2000/svg" xmlns:xlink="http://www.w3.org/1999/xlink" x="0px" y="0px"
	 viewBox="0 0 750 96.75" style="enable-background:new 0 0 750 96.75;" xml:space="preserve">
<style type="text/css">
	.st0{fill:#1AA2DC;}
	.st1{fill:#2874BB;}
	.st2{fill:#4CB748;}
</style>
<g>
	<path class="st0" d="M29.25,5.25C12.75,5.25,0,18.75,0,35.25c0,55.5,0,55.5,0,55.5c55.5,0,55.5,0,55.5,0c15.75,0,30-13.5,30-30
		c0-55.5,0-55.5,0-55.5H29.25z M64.5,52.5c0,9.75-7.5,17.25-17.25,17.25c-27,0-27,0-27,0c0-26.25,0-26.25,0-26.25
		c0-9.75,8.25-17.25,17.25-17.25c27,0,27,0,27,0V52.5z"/>
	<path class="st1" d="M77.25,81c8.25-8.25,8.25-19.5,8.25-19.5c0-56.25,0-56.25,0-56.25c-21,21-21,21-21,21c0,26.25,0,26.25,0,26.25
		c0,17.25-15,38.25-64.5,38.25c55.5,0,55.5,0,55.5,0C58.5,90.75,69,90,77.25,81L77.25,81z"/>
	<path class="st2" d="M42.75,57.75C37.5,57.75,33,53.25,33,48s4.5-9.75,9.75-9.75c2.25,0,9.75,0,9.75,0s0,7.5,0,9.75
		C52.5,53.25,48,57.75,42.75,57.75L42.75,57.75z"/>
	<path class="st0" d="M177.75,74.25c-0.75-1.5-2.25-4.5-2.25-6.75c-2.25,4.5-7.5,8.25-15,8.25c-9,0-18-4.5-18-15
		s5.25-17.25,27.75-17.25c5.25,0,5.25,0,5.25,0c0-4.5,0-4.5,0-4.5c0-9-3.75-13.5-12-13.5c-7.5,0-12,2.25-17.25,4.5
		c-1.5-4.5-1.5-4.5-1.5-4.5c6-2.25,10.5-3.75,18.75-3.75c9.75,0,16.5,5.25,16.5,16.5c0,20.25,0,20.25,0,20.25
		c0,3.75,0.75,9,1.5,15.75H177.75z M175.5,47.25c-3.75,0-3.75,0-3.75,0c-18.75,0-24,3.75-24,13.5c0,6.75,4.5,11.25,12.75,11.25
		c6.75,0,12-3.75,15-8.25V47.25z"/>
	<path class="st0" d="M207.75,75.75c-15,0-21.75-11.25-21.75-27c0-16.5,6-27,21.75-27c5.25,0,11.25,1.5,15,3
		c-1.5,4.5-1.5,4.5-1.5,4.5c-3.75-2.25-9.75-3.75-13.5-3.75c-12.75,0-16.5,10.5-16.5,23.25c0,12,3.75,23.25,16.5,23.25
		c3.75,0,9-1.5,13.5-3.75c1.5,3.75,1.5,3.75,1.5,3.75C219,74.25,211.5,75.75,207.75,75.75L207.75,75.75z"/>
	<path class="st0" d="M248.25,75.75c-15,0-21-11.25-21-27c0-16.5,6-27,21.75-27c4.5,0,11.25,1.5,14.25,3c-1.5,4.5-1.5,4.5-1.5,4.5
		C258,27,252.75,25.5,249,25.5c-12.75,0-17.25,10.5-17.25,23.25c0,12,3.75,23.25,16.5,23.25c3.75,0,9.75-1.5,14.25-3.75
		C264,72,264,72,264,72C260.25,74.25,252.75,75.75,248.25,75.75L248.25,75.75z"/>
	<path class="st0" d="M289.5,75.75C273,75.75,267.75,63,267.75,48c0-14.25,5.25-26.25,21.75-26.25s21,12,21,26.25
		C310.5,63,306,75.75,289.5,75.75L289.5,75.75z M289.5,25.5C276.75,25.5,273,36,273,48c0,12.75,3,24,16.5,24S306,60.75,306,48
		C306,36,302.25,25.5,289.5,25.5L289.5,25.5z"/>
	<path class="st0" d="M349.5,74.25C348,66,348,66,348,66c-2.25,3-5.25,9.75-15.75,9.75c-12,0-15.75-9-15.75-20.25c0-33,0-33,0-33
		c4.5,0,4.5,0,4.5,0c0,31.5,0,31.5,0,31.5c0,9.75,1.5,18,12.75,18c7.5,0,12-7.5,14.25-12c0-37.5,0-37.5,0-37.5c4.5,0,4.5,0,4.5,0
		c0,40.5,0,40.5,0,40.5c0,4.5,0.75,6.75,0.75,11.25H349.5z"/>
	<path class="st0" d="M394.5,74.25c0-31.5,0-31.5,0-31.5c0-9-1.5-17.25-12.75-17.25c-7.5,0-12.75,6.75-14.25,11.25
		c0,37.5,0,37.5,0,37.5c-5.25,0-5.25,0-5.25,0c0-40.5,0-40.5,0-40.5c0-4.5-0.75-6.75-0.75-11.25c3.75,0,3.75,0,3.75,0
		c1.5,8.25,1.5,8.25,1.5,8.25c2.25-2.25,6-9,15-9C395.25,21.75,399,30,399,42c0,32.25,0,32.25,0,32.25H394.5z"/>
	<path class="st0" d="M428.25,79.5c-12-2.25-17.25-8.25-17.25-17.25c0-36,0-36,0-36c-8.25,0-8.25,0-8.25,0c0-3.75,0-3.75,0-3.75
		c8.25,0,8.25,0,8.25,0c0-20.25,0-20.25,0-20.25c4.5,0,4.5,0,4.5,0c0,20.25,0,20.25,0,20.25c11.25,0,11.25,0,11.25,0
		c0,3.75,0,3.75,0,3.75c-11.25,0-11.25,0-11.25,0c0,36,0,36,0,36C415.5,69,419.25,73.5,429,75L428.25,79.5z"/>
	<polygon class="st0" points="435,74.25 435,22.5 439.5,22.5 439.5,74.25 435,74.25 	"/>
	<path class="st0" d="M482.25,74.25c0-31.5,0-31.5,0-31.5c0-9-2.25-17.25-13.5-17.25c-6.75,0-12.75,6.75-14.25,11.25
		c0,37.5,0,37.5,0,37.5c-4.5,0-4.5,0-4.5,0c0-40.5,0-40.5,0-40.5c0-4.5-0.75-6.75-0.75-11.25c3.75,0,3.75,0,3.75,0
		c1.5,8.25,1.5,8.25,1.5,8.25c1.5-2.25,6-9,15-9c12.75,0,17.25,8.25,17.25,20.25c0,32.25,0,32.25,0,32.25H482.25z"/>
	<path class="st0" d="M513.75,96.75c-16.5,0-22.5-6-22.5-14.25c0-6.75,6.75-10.5,11.25-11.25c-3.75-1.5-7.5-3.75-7.5-8.25
		c0-3.75,2.25-6,4.5-8.25c-1.5-1.5-6-5.25-6-14.25c0-6,3.75-18.75,19.5-18.75c3.75,0,6.75,0.75,8.25,1.5c4.5-0.75,9-0.75,14.25-1.5
		c-1.5,4.5-1.5,4.5-1.5,4.5c-8.25,0-8.25,0-8.25,0c3,2.25,6.75,7.5,6.75,14.25c0,9.75-5.25,19.5-19.5,19.5c-3,0-9-1.5-10.5-3
		c-1.5,1.5-3,3.75-3,6c0,3,2.25,4.5,15.75,6c16.5,2.25,21,7.5,21,12.75C536.25,91.5,525.75,96.75,513.75,96.75L513.75,96.75z
		 M507,72.75c-7.5,1.5-11.25,6-11.25,9.75c0,6,4.5,10.5,18,10.5c12,0,17.25-4.5,17.25-11.25C531,75.75,523.5,74.25,507,72.75
		L507,72.75z M513,25.5c-11.25,0-14.25,8.25-14.25,15c0,8.25,3.75,15.75,14.25,15.75s14.25-7.5,14.25-15.75
		C527.25,30.75,522.75,25.5,513,25.5L513,25.5z"/>
	<path class="st0" d="M563.25,75.75c-6,0-15-1.5-21-3.75c5.25-12,5.25-12,5.25-12c6,1.5,9.75,4.5,15.75,4.5c7.5,0,7.5-2.25,7.5-3.75
		c0-0.75,0-0.75,0-0.75c0-5.25-27-1.5-27-23.25c0-13.5,12-15.75,23.25-15.75c4.5,0,11.25,0.75,18,3
		c-5.25,12.75-5.25,12.75-5.25,12.75C574.5,34.5,571.5,33,567,33c-5.25,0-7.5,0.75-7.5,3.75c0,6.75,27,3,27,23.25
		C586.5,72.75,574.5,75.75,563.25,75.75L563.25,75.75z"/>
	<path class="st0" d="M604.5,55.5c1.5,6.75,6,9,11.25,9c4.5,0,10.5-1.5,15.75-4.5c5.25,12,5.25,12,5.25,12
		c-6,3-14.25,3.75-21.75,3.75c-17.25,0-26.25-12.75-26.25-27c0-12,5.25-27.75,25.5-27.75c19.5,0,25.5,10.5,25.5,34.5H604.5z
		 M614.25,33c-2.25,0-9,0.75-9.75,10.5c20.25,0,20.25,0,20.25,0C624,35.25,619.5,33,614.25,33L614.25,33z"/>
	<path class="st0" d="M660,55.5c0.75,6.75,5.25,9,10.5,9C675,64.5,681,63,687,60c4.5,12,4.5,12,4.5,12c-6,3-14.25,3.75-21.75,3.75
		c-17.25,0-26.25-12.75-26.25-27c0-12,5.25-27.75,25.5-27.75c19.5,0,26.25,10.5,26.25,34.5H660z M669,33c-2.25,0-9,0.75-9,10.5
		c19.5,0,19.5,0,19.5,0C678.75,35.25,674.25,33,669,33L669,33z"/>
	<path class="st0" d="M735.75,74.25c-2.25-4.5-2.25-4.5-2.25-4.5c-0.75,2.25-4.5,6-11.25,6c-18,0-24-12.75-24-27.75
		c0-14.25,6.75-27,21.75-27c6,0,10.5,3.75,13.5,8.25c0-29.25,0-29.25,0-29.25c15,0,15,0,15,0c0,58.5,0,58.5,0,58.5
		c0,6.75,0.75,9.75,1.5,15.75H735.75z M733.5,43.5c-3-5.25-6-10.5-9.75-10.5c-5.25,0-9.75,2.25-9.75,15.75s4.5,15,11.25,15
		c3.75,0,6.75-3,8.25-7.5V43.5z"/>
</g>
</svg>
