<?xml version="1.0" encoding="utf-8"?>
<!-- Generator: Adobe Illustrator 19.0.0, SVG Export Plug-In . SVG Version: 6.00 Build 0)  -->
<svg version="1.1" id="Layer_1" xmlns="http://www.w3.org/2000/svg" xmlns:xlink="http://www.w3.org/1999/xlink" x="0px" y="0px"
	 viewBox="0 0 200 36.2" style="enable-background:new 0 0 200 36.2;" xml:space="preserve">
<style type="text/css">
	.st0{clip-path:url(#XMLID_36_);fill-rule:evenodd;clip-rule:evenodd;fill:#19A6BD;}
	.st1{clip-path:url(#XMLID_36_);fill-rule:evenodd;clip-rule:evenodd;fill:#0F7A88;}
	.st2{clip-path:url(#XMLID_37_);}
	.st3{fill:#19A6BD;}
	.st4{font-family:'MyriadPro-Regular';}
	.st5{font-size:8px;}
	.st6{clip-path:url(#XMLID_37_);fill:#19A6BD;}
	.st7{clip-path:url(#XMLID_37_);fill:#0F7A88;}
</style>
<g id="XMLID_17_">
	<defs>
		<rect id="XMLID_18_" x="0" y="0" width="200" height="36.2"/>
	</defs>
	<clipPath id="XMLID_36_">
		<use xlink:href="#XMLID_18_"  style="overflow:visible;"/>
	</clipPath>
	<path id="XMLID_22_" class="st0" d="M8.1,9.3c3.4-6.4,12.4-7.7,20.1-3c0.2,0.1,0.5,0.3,0.7,0.5C22.1,3,14.5,4.3,11.5,9.8
		c-3.1,5.7,0,13.8,6.9,18.1C25,32,32.8,31,36.1,25.8c-0.1,0.2-0.2,0.4-0.3,0.6c-3.4,6.4-12.4,7.7-20.1,3C8.1,24.6,4.6,15.6,8.1,9.3"
		/>
	<path id="XMLID_21_" class="st1" d="M13.3,10.3c-2.9,5.3,0,12.8,6.3,16.7c0.2,0.1,0.4,0.2,0.6,0.4c-5.3-3.6-7.6-10-5.2-14.6
		c2.6-4.8,9.3-5.7,15-2.2c5.5,3.4,8.1,9.8,5.9,14.5c0.1-0.2,0.2-0.3,0.3-0.5c2.9-5.3,0-12.8-6.3-16.7C23.7,3.9,16.2,5,13.3,10.3"/>
	<path id="XMLID_20_" class="st0" d="M16.7,13.2c2.4-4.4,8.6-5.3,13.9-2.1c0.2,0.1,0.3,0.2,0.5,0.3c-4.6-2.6-9.9-1.7-12,2.1
		c-2.1,4,0,9.5,4.7,12.5c4.6,2.8,10,2.2,12.3-1.5c-0.1,0.1-0.1,0.3-0.2,0.4c-2.4,4.4-8.6,5.3-13.9,2.1
		C16.7,23.8,14.3,17.6,16.7,13.2"/>
	<path id="XMLID_19_" class="st1" d="M2.2,8c4.1-7.7,15-9.3,24.2-3.6c0.3,0.2,0.6,0.4,0.9,0.6c-8.1-4.5-17.4-3-21,3.7
		c-3.7,6.9,0,16.7,8.3,21.8c8,5,17.4,3.8,21.4-2.6c-0.1,0.2-0.2,0.5-0.4,0.7c-4.1,7.7-15,9.3-24.2,3.6C2.1,26.5-2,15.6,2.2,8"/>
</g>
<g id="XMLID_2_">
	<defs>
		<rect id="XMLID_3_" x="0" y="0" width="200" height="36.2"/>
	</defs>
	<clipPath id="XMLID_37_">
		<use xlink:href="#XMLID_3_"  style="overflow:visible;"/>
	</clipPath>
	<g id="XMLID_16_" class="st2">
		<text transform="matrix(1 0 0 1 192.5 10)" class="st3 st4 st5">®</text>
	</g>
	<path id="XMLID_13_" class="st6" d="M105,32V4.4h9.3c2.2,0,4.1,0.4,5.8,1.1c1.7,0.7,3,1.7,4.1,3c1.1,1.2,1.9,2.7,2.5,4.4
		c0.5,1.7,0.8,3.5,0.8,5.4c0,2.1-0.3,4-0.9,5.7c-0.6,1.7-1.5,3.2-2.6,4.4c-1.1,1.2-2.5,2.1-4.2,2.8c-1.6,0.7-3.5,1-5.5,1H105z
		 M124.8,18.1c0-1.7-0.2-3.2-0.7-4.6c-0.5-1.4-1.1-2.6-2-3.6s-2-1.8-3.3-2.4c-1.3-0.6-2.8-0.8-4.5-0.8h-6.7v22.8h6.7
		c1.7,0,3.2-0.3,4.5-0.9c1.3-0.6,2.4-1.4,3.3-2.4c0.9-1,1.5-2.2,2-3.6C124.6,21.3,124.8,19.8,124.8,18.1"/>
	<path id="XMLID_10_" class="st6" d="M129,32l11.6-27.6h2.2L154.4,32h-2.9l-3.6-8.6h-12.4l-3.5,8.6H129z M141.7,7.6L136,21.2h11.2
		L141.7,7.6z"/>
	<polygon id="XMLID_9_" class="st6" points="175.3,6.8 165.4,6.8 165.4,32 162.7,32 162.7,6.8 152.9,6.8 152.9,4.4 175.3,4.4 	"/>
	<path id="XMLID_6_" class="st6" d="M173.8,32l11.6-27.6h2.2L199.2,32h-2.9l-3.6-8.6h-12.4l-3.5,8.6H173.8z M186.5,7.6l-5.7,13.7
		h11.2L186.5,7.6z"/>
	<polygon id="XMLID_5_" class="st7" points="65.2,4.3 65.2,32 57.7,32 57.7,21.2 48.4,21.2 48.4,32 40.8,32 40.8,4.3 48.4,4.3 
		48.4,14.5 57.7,14.5 57.7,4.3 	"/>
	<path id="XMLID_4_" class="st7" d="M88.8,29.7c-2,1.7-4.2,2.5-6.8,2.5c-1.8,0-3.5-0.3-5.1-1c-1.6-0.6-3.1-1.6-4.3-2.8
		s-2.2-2.7-2.9-4.5c-0.7-1.8-1.1-3.8-1.1-6c0-1.9,0.4-3.8,1.1-5.4c0.7-1.7,1.7-3.1,3-4.4c1.3-1.2,2.8-2.2,4.5-2.9
		c1.7-0.7,3.6-1.1,5.6-1.1c1.2,0,2.4,0.1,3.6,0.4c1.1,0.3,2.2,0.7,3.2,1.2c1,0.5,1.8,1.2,2.6,1.9c0.8,0.7,1.4,1.6,1.9,2.5l-5.6,4.3
		c-0.5-1.1-1.4-2-2.5-2.6c-1.1-0.7-2.2-1-3.5-1c-0.9,0-1.7,0.2-2.5,0.5c-0.8,0.4-1.4,0.9-1.9,1.5c-0.5,0.6-1,1.4-1.3,2.3
		c-0.3,0.9-0.5,1.9-0.5,2.9c0,1.1,0.2,2.1,0.5,3c0.3,0.9,0.7,1.6,1.3,2.3c0.6,0.6,1.2,1.1,2,1.5c0.8,0.3,1.6,0.5,2.6,0.5
		c2.2,0,4.2-0.9,5.8-2.7h-4.8v-5.4H95V32h-6.3V29.7z"/>
</g>
</svg>
